# xmcd
#
# Track frame offsets:
#	150
#	12673
#	32035
#	44050
#	58097
#	70036
#	80971
#	93273
#	108710
#	126045
#	140391
#	150353
#	163839
#	176277
#	191067
#
# Disc length: 2694 seconds
#
# Revision: 1
# Processed by: cddbd v1.5.1PL0 Copyright (c) Steve Scherf et al.
# Submitted via: audiograbber 1.82.02
#
DISCID=d10a840f
DTITLE=Terry Gordon - I Just Can't Get Enough
DYEAR=1900
DGENRE=Country
TTITLE0=Wide Brown Plains Near Hay
TTITLE1=Be Careful When You Love
TTITLE2=I Just Can't Get Enough
TTITLE3=I See An Angel Everyday
TTITLE4=My First Night Without You
TTITLE5=I Just Wanna Dance
TTITLE6=Picture Of Your Mother
TTITLE7=I'll Never Need Another You
TTITLE8=In My Next Life
TTITLE9=Heaven Can't Be Found
TTITLE10=Let's Pretend We're Not Married
TTITLE11=No Charge
TTITLE12=I Hardly Ever Sing Beer Drinking Songs
TTITLE13=If I Lay Down The Bottle
TTITLE14=Another She's Leaving Song
EXTD=
EXTT0=
EXTT1=
EXTT2=
EXTT3=
EXTT4=
EXTT5=
EXTT6=
EXTT7=
EXTT8=
EXTT9=
EXTT10=
EXTT11=
EXTT12=
EXTT13=
EXTT14=
PLAYORDER=
